<svg xmlns="http://www.w3.org/2000/svg" height="40" viewBox="0 96 960 960" width="40"><path d="M370.001 949.69v-93.384q-101.385-34.307-165.692-121.999Q140.001 646.615 140.001 534q0-70.769 26.77-132.615 26.769-61.846 72.768-107.846 46-45.999 107.846-72.768 61.846-26.77 131.615-26.77 70.154 0 132.307 26.77 62.154 26.769 108.461 72.768 46.308 46 73.269 107.846Q819.999 463.231 819.999 534q0 112.23-64.616 199.307-64.615 87.077-165.384 121.999v94.384h-50.255v-81.102q-15 2.769-29.936 4.09-14.936 1.321-30.808 1.321-15 0-29.77-1.424-14.769-1.423-28.974-3.987v81.102h-50.255Zm-40-508.563h299.998v-50.254H330.001v50.254Zm116.614 317.257 100.461-100.461-50-50 55.308-55.308-38.999-38.999-100.461 100.461 50 50-55.308 55.308 38.999 38.999Z"/></svg>