<svg xmlns="http://www.w3.org/2000/svg" height="40" viewBox="0 96 960 960" width="40"><path d="M360 975.333V874q-106-37-173-129.5T120 534q0-75 28.5-140.5t77-114q48.5-48.5 114-77T479 174q74 0 140 28.5t115 77q49 48.5 77.5 114T840 534q0 118-67.5 209.5T600 873v102.333h-66.666V890q-13.334 2-26.667 3-13.334 1-27.667 1-13.333 0-26.5-1.167-13.167-1.166-25.834-2.833v85.333H360Zm120-145.999q122 0 207.667-85.667T773.334 536q0-122-85.667-207.667T480 242.666q-122 0-207.667 85.667T186.666 536q0 122 85.667 207.667T480 829.334ZM320 449.333h320v-66.666H320v66.666Zm125.333 322L560.666 656l-50-50 54.667-54.667-50.666-50.666L399.334 616l50 50-54.667 54.667 50.666 50.666ZM480 536Z"/></svg>