<svg xmlns="http://www.w3.org/2000/svg" height="40" viewBox="0 96 960 960" width="40"><path d="M231.333 955.999q-38.781 0-65.8-27.019t-27.019-65.8V760.873h123.385V203.694l55.302 47.692 56.072-47.692 56.071 47.692 56.072-47.692 56.071 47.692 56.154-47.692 56.153 47.692 56.154-47.692 56.153 47.692 55.385-47.692V863.18q0 38.781-27.019 65.8t-65.8 27.019H231.333Zm496.718-50.255q18.026 0 29.859-11.975 11.834-11.975 11.834-30.692V278.41H313.641v506.822h374.615v77.948q0 18.487 10.885 30.525 10.885 12.039 28.91 12.039ZM367.693 425.435V375.18h226.922v50.255H367.693Zm0 127.026v-50.255h226.922v50.255H367.693ZM684.051 430.82q-12.384 0-21.448-9.064t-9.064-21.448q0-12.385 9.064-21.449 9.064-9.064 21.448-9.064 12.385 0 21.449 9.064 9.064 9.064 9.064 21.449 0 12.384-9.064 21.448t-21.449 9.064Zm0 124.462q-12.384 0-21.448-9.064t-9.064-21.449q0-12.384 9.064-21.448t21.448-9.064q12.385 0 21.449 9.064 9.064 9.064 9.064 21.448 0 12.385-9.064 21.449-9.064 9.064-21.449 9.064Z"/></svg>