<svg xmlns="http://www.w3.org/2000/svg" height="40" viewBox="0 96 960 960" width="40"><path d="M840 374v495.334q0 27-19.833 46.833T773.334 936H186.666q-27 0-46.833-19.833T120 869.334V282.666q0-27 19.833-46.833T186.666 216H682l158 158Zm-66.666 29.333L652.667 282.666H186.666v586.668h586.668V403.333ZM479.843 812.667q45.49 0 77.49-31.844 32-31.843 32-77.333 0-45.49-31.843-77.49-31.843-31.999-77.333-31.999-45.49 0-77.49 31.843-32 31.843-32 77.333 0 45.49 31.843 77.49 31.843 32 77.333 32ZM235.333 480H594V331.333H235.333V480Zm-48.667-76.667v466.001-586.668 120.667Z"/></svg>