<svg xmlns="http://www.w3.org/2000/svg" height="40" viewBox="0 96 960 960" width="40"><path d="M819.999 382.975v470.46q0 25.788-18.388 44.176t-44.176 18.388h-554.87q-25.788 0-44.176-18.388t-18.388-44.176v-554.87q0-25.788 18.388-44.176t44.176-18.388h470.46l146.974 146.974ZM479.753 784.203q38.293 0 65.346-26.806 27.053-26.805 27.053-65.099 0-38.294-26.805-65.347-26.806-27.053-65.1-27.053-38.293 0-65.346 26.806-27.053 26.806-27.053 65.099 0 38.294 26.805 65.347 26.806 27.053 65.1 27.053Zm-227.752-304.46h327.382V348.001H252.001v131.742Z"/></svg>