<svg xmlns="http://www.w3.org/2000/svg" height="40" viewBox="0 96 960 960" width="40"><path d="M146.666 816q-27 0-46.833-19.833T80 749.334V402.666q0-26.333 19.833-46.499Q119.666 336 146.666 336h666.668q27 0 46.833 20.167Q880 376.333 880 402.666v346.668q0 27-19.833 46.833T813.334 816H146.666Zm0-66.666h666.668V402.666H686.667V576h-66.666V402.666H513.333V576h-66.666V402.666H339.999V576h-66.666V402.666H146.666v346.668ZM273.333 576h66.666-66.666Zm173.334 0h66.666-66.666Zm173.334 0h66.666-66.666ZM480 576Z"/></svg>