<svg xmlns="http://www.w3.org/2000/svg" height="40" viewBox="0 96 960 960" width="40"><path d="M224.666 869.334h510.668l-61-426.668H285.666l-61 426.668ZM480 376q22.667 0 38-15.333 15.334-15.334 15.334-38.001 0-22.667-15.334-38-15.333-15.333-38-15.333t-38 15.333q-15.334 15.333-15.334 38T442 360.667Q457.333 376 480 376Zm107 0h87.334q25.405 0 44.036 16.333 18.63 16.333 22.297 41.333L801 860.334q4.333 30-15.25 52.833T735.334 936H224.666q-30.833 0-50.416-22.833T159 860.334l60.333-426.668q3.667-25 22.298-41.333Q260.261 376 285.666 376H373q-6.333-12.667-9.667-25.545Q360 337.578 360 322.666q0-50 35-85t85-35q50 0 85 35t35 85q0 15-3.333 27.834-3.334 12.833-9.667 25.5ZM224.666 869.334h510.668-510.668Z"/></svg>